#!OML:ASF H:\Male1\Project 1\Capture day 1\Session 1\Male1.ASF
:FULLY-SPECIFIED
:DEGREES
370
root 22.5999 15.568 -1.3413 816.178 -81.5914 269.79
lowerback 10.4756 2.9712 5.27908
upperback 6.38925 4.09366 -0.5581
thorax 1.2432 2.09934 -3.90067
lowerneck -15.9125 2.10262 4.90997
upperneck 1.39286 1.90031 -2.17035
head 3.37509 0.848027 -1.46344
rclavicle 2.0276e-014 -2.78299e-014
rhumerus -41.6869 24.4684 -86.8844
rradius 111.919
rwrist -20.419
rhand -29.0426 23.1348
rfingers 7.12502
rthumb -2.3929 -6.8315
lclavicle 2.0276e-014 -2.78299e-014
lhumerus -84.6431 2.2514 84.0612
lradius 101.674
lwrist 18.2285
lhand -28.0337 -9.31542
lfingers 7.12502
lthumb -1.41844 20.6596
rfemur 15.7033 4.64011 34.9722
rtibia 22.1003
rfoot -4.04537 -18.3331
rtoes -29.6521
lfemur -40.7271 -11.2568 -14.4445
ltibia 47.6937
lfoot -21.9044 13.8112
ltoes -13.3305
371
root 21.9029 15.6372 -1.35985 811.414 -81.6556 274.539
lowerback 9.74445 2.76632 5.02888
upperback 6.37525 3.7803 -0.722108
thorax 1.58497 1.95365 -3.86647
lowerneck -16.0066 2.154 4.71666
upperneck 1.64562 1.98472 -1.84633
head 3.47607 0.907048 -1.31235
rclavicle 2.34566e-014 4.77083e-015
rhumerus -43.7309 24.1612 -87.8738
rradius 113.818
rwrist -20.719
rhand -28.7739 23.7436
rfingers 7.12502
rthumb -2.13333 -6.22548
lclavicle 2.34566e-014 4.77083e-015
lhumerus -84.3464 3.66388 82.8856
lradius 101.691
lwrist 18.5962
lhand -27.4745 -8.21125
lfingers 7.12502
lthumb -0.878414 21.7667
rfemur 15.3775 3.73443 34.4528
rtibia 26.0375
rfoot -4.84155 -19.7397
rtoes -27.6885
lfemur -39.7519 -12.7573 -13.9543
ltibia 43.5373
lfoot -22.0719 14.2681
ltoes -13.7803
372
root 21.2164 15.6676 -1.37589 806.901 -81.7672 278.901
lowerback 9.33231 2.55319 4.74418
upperback 6.34353 3.46927 -0.929663
thorax 1.7371 1.80115 -3.88138
lowerneck -16.0411 2.20235 4.60219
upperneck 1.84258 2.05184 -1.53482
head 3.54694 0.957303 -1.18089
rclavicle -2.78299e-015 7.95139e-015
rhumerus -46.0474 23.5727 -89.2017
rradius 115.236
rwrist -21.3976
rhand -28.4233 24.0416
rfingers 7.12502
rthumb -1.79478 -5.93062
lclavicle -2.78299e-015 7.95139e-015
lhumerus -83.2874 4.79025 82.0117
lradius 101.522
lwrist 18.964
lhand -27.5604 -6.88461
lfingers 7.12502
lthumb -0.961319 23.093
rfemur 14.3441 2.74174 33.6815
rtibia 31.2214
rfoot -6.66826 -21.4065
rtoes -25.6169
lfemur -38.4976 -13.7148 -13.9074
ltibia 40.3954
lfoot -22.308 14.6328
ltoes -14.3294
373
root 20.5398 15.6564 -1.38948 802.625 -81.9541 282.897
lowerback 9.19445 2.35069 4.42337
upperback 6.31398 3.17948 -1.18383
thorax 1.74572 1.6533 -3.94167
lowerneck -16.0168 2.22647 4.52558
upperneck 1.9659 2.08051 -1.22492
head 3.57969 0.987956 -1.05993
rclavicle 8.34896e-014 1.59028e-015
rhumerus -48.4823 22.704 -90.7408
rradius 116.097
rwrist -22.3522
rhand -28.0294 24.0517
rfingers 7.12502
rthumb -1.41428 -5.92334
lclavicle 8.34896e-014 1.59028e-015
lhumerus -81.4974 5.56088 81.5117
lradius 101.15
lwrist 19.2451
lhand -28.1105 -5.51732
lfingers 7.12502
lthumb -1.49268 24.4572
rfemur 12.8067 1.76371 32.6424
rtibia 37.1336
rfoot -8.91436 -22.8186
rtoes -23.9431
lfemur -37.004 -13.91 -14.4513
ltibia 38.3428
lfoot -22.4621 14.6776
ltoes -15.6293
374
root 19.8731 15.6038 -1.40199 798.324 -82.3474 286.824
lowerback 9.28623 2.16511 3.9222
upperback 6.28316 2.90422 -1.51113
thorax 1.62301 1.50356 -3.98816
lowerneck -15.9901 2.24004 4.47644
upperneck 2.08833 2.09085 -0.939314
head 3.61223 1.00871 -0.953745
rclavicle -1.82882e-014 1.19271e-014
rhumerus -50.9079 21.5953 -92.3898
rradius 116.266
rwrist -23.2088
rhand -27.7907 23.9925
rfingers 7.12502
rthumb -1.18378 -5.98399
lclavicle -1.82882e-014 1.19271e-014
lhumerus -79.0507 5.96152 81.3694
lradius 100.525
lwrist 19.4193
lhand -28.7824 -4.27244
lfingers 7.12502
lthumb -2.14153 25.6966
rfemur 10.8131 0.89172 31.226
rtibia 43.4689
rfoot -10.9208 -23.6906
rtoes -22.9974
lfemur -35.2942 -13.312 -15.6933
ltibia 37.3596
lfoot -22.2581 13.9812
ltoes -16.5644
375
root 19.2163 15.5154 -1.41415 793.509 -82.9346 291.235
lowerback 9.55144 1.98376 3.22744
upperback 6.23494 2.61926 -1.90712
thorax 1.38152 1.34049 -4.00211
lowerneck -15.994 2.2591 4.43997
upperneck 2.24031 2.10433 -0.663023
head 3.66198 1.03118 -0.85261
rclavicle -2.26615e-014 1.35174e-014
rhumerus -53.1862 20.3223 -94.0284
rradius 115.625
rwrist -23.6608
rhand -27.8098 24.0274
rfingers 7.12502
rthumb -1.20219 -5.94894
lclavicle -2.26615e-014 1.35174e-014
lhumerus -76.0466 6.01805 81.5259
lradius 99.6718
lwrist 19.4889
lhand -29.2357 -3.20821
lfingers 7.12502
lthumb -2.57938 26.7559
rfemur 8.33851 0.176958 29.484
rtibia 50.0146
rfoot -12.439 -23.8963
rtoes -22.8881
lfemur -33.5259 -12.1473 -17.4225
ltibia 37.4023
lfoot -21.9325 12.5591
ltoes -16.7995
376
root 18.5714 15.3946 -1.42701 787.174 -83.7531 297.179
lowerback 9.94936 1.80124 2.23932
upperback 6.17026 2.30016 -2.3778
thorax 1.04094 1.15055 -3.9273
lowerneck -16.0232 2.29742 4.39905
upperneck 2.40399 2.14167 -0.384585
head 3.72161 1.06574 -0.747671
rclavicle -2.38542e-015 -1.90833e-014
rhumerus -55.167 18.9166 -95.5101
rradius 114.201
rwrist -23.7787
rhand -27.9496 24.0823
rfingers 7.12502
rthumb -1.33727 -5.89326
lclavicle -2.38542e-015 -1.90833e-014
lhumerus -72.5825 5.75055 81.9272
lradius 98.6876
lwrist 19.4616
lhand -29.1803 -2.63134
lfingers 7.12502
lthumb -2.52581 27.3335
rfemur 5.34225 -0.384577 27.3898
rtibia 56.6455
rfoot -13.5814 -23.6228
rtoes -23.1812
lfemur -31.8381 -10.762 -19.472
ltibia 38.3686
lfoot -21.4756 10.697
ltoes -15.2919
377
root 17.9416 15.2464 -1.44179 777.476 -84.6927 306.501
lowerback 10.5276 1.60839 0.967491
upperback 6.08787 1.92242 -2.90716
thorax 0.578442 0.923045 -3.74898
lowerneck -16.0697 2.35258 4.35356
upperneck 2.53902 2.19906 -0.0959222
head 3.77472 1.11007 -0.636488
rclavicle -1.55052e-014 -1.59028e-015
rhumerus -56.7965 17.4416 -96.7593
rradius 112.008
rwrist -23.5678
rhand -28.2288 23.9284
rfingers 7.12502
rthumb -1.60686 -6.0453
lclavicle -1.55052e-014 -1.59028e-015
lhumerus -68.7399 5.10071 82.5571
lradius 97.7322
lwrist 19.2835
lhand -29.1233 -2.05864
lfingers 7.12502
lthumb -2.47076 27.9068
rfemur 1.83912 -0.8826 25.0061
rtibia 63.2459
rfoot -14.5429 -23.1231
rtoes -23.3022
lfemur -30.2855 -9.46789 -21.6638
ltibia 40.1241
lfoot -21.2234 8.6638
ltoes -12.016
378
root 17.3283 15.0801 -1.45847 761.992 -85.4599 321.731
lowerback 11.1705 1.39163 -0.491264
upperback 5.98516 1.46615 -3.44827
thorax 0.0629759 0.654804 -3.46384
lowerneck -16.1007 2.41154 4.3029
upperneck 2.56004 2.26298 0.179467
head 3.78405 1.15451 -0.528612
rclavicle -1.98785e-014 5.08889e-014
rhumerus -58.0367 15.9657 -97.7115
rradius 109.127
rwrist -23.2273
rhand -28.7058 23.6663
rfingers 7.12502
rthumb -2.06759 -6.30339
lclavicle -1.98785e-014 5.08889e-014
lhumerus -64.5258 3.99248 83.4041
lradius 96.9411
lwrist 18.9769
lhand -28.9359 -1.64103
lfingers 7.12502
lthumb -2.28985 28.3264
rfemur -2.2813 -1.43239 22.4726
rtibia 69.6943
rfoot -15.4778 -22.6249
rtoes -23.1738
lfemur -28.9552 -8.54673 -23.8157
ltibia 42.4255
lfoot -21.4589 6.8021
ltoes -7.46975
